<svg version="1.1" id="Layer_1" xmlns:x="ns_extend;" xmlns:i="ns_ai;" xmlns:graph="ns_graphs;" xmlns="http://www.w3.org/2000/svg" xmlns:xlink="http://www.w3.org/1999/xlink" x="0px" y="0px" viewBox="0 0 220 47" style="enable-background:new 0 0 220 47;" xml:space="preserve">
 <style type="text/css">
  .st0{fill:#FFFFFF;}
 </style>
 <metadata>
  <sfw xmlns="ns_sfw;">
   <slices>
   </slices>
   <sliceSourceBounds bottomLeftOrigin="true" height="47" width="219.2" x="0" y="0">
   </sliceSourceBounds>
  </sfw>
 </metadata>
 <g>
  <path class="st0" d="M33.1,13.9h11.3v0.6h-3.9l6,14.5l6.2-14.5h-3.8v-0.6H56v0.6h-2.5l-7.6,17.9c-0.6,1.3-1.1,2.7-1.7,4
		c-0.5,1.3-1,2.7-1.6,4c-0.4,1.1-0.9,2.1-1.3,2.9c-0.4,0.8-0.9,1.5-1.4,2c-0.5,0.5-1,0.9-1.5,1.2c-0.6,0.3-1.2,0.4-1.9,0.4
		c-0.9,0-1.6-0.1-2.2-0.4c-0.5-0.3-1-0.6-1.3-1c-0.3-0.4-0.5-0.8-0.6-1.2c-0.1-0.4-0.1-0.7-0.1-1c0-0.8,0.2-1.3,0.6-1.7
		c0.4-0.4,1-0.6,1.6-0.6c0.2,0,0.4,0,0.7,0.1c0.2,0,0.5,0.1,0.7,0.3c0.2,0.1,0.4,0.3,0.6,0.5s0.2,0.5,0.2,0.8c0,0.4-0.1,0.8-0.4,1.2
		c-0.3,0.4-0.4,0.8-0.4,1.3c0,0.4,0.1,0.7,0.3,0.8c0.2,0.1,0.5,0.2,0.9,0.2c0.5,0,0.9-0.1,1.4-0.3c0.4-0.2,0.8-0.6,1.2-1.1
		c0.4-0.5,0.8-1.2,1.2-2.1c0.4-0.8,0.8-1.9,1.3-3.1l2-5.2l-8-19.8h-3.2V13.9L33.1,13.9z">
  </path>
  <path class="st0" d="M67.9,0.4h7.5v32.7h3.6v0.6h-7.5v-4h-0.1c-0.1,0.4-0.3,0.8-0.6,1.3c-0.2,0.5-0.6,1-1.1,1.5
		c-0.5,0.5-1.1,0.9-1.8,1.3c-0.7,0.4-1.6,0.5-2.7,0.5c-1.4,0-2.6-0.3-3.9-0.9c-1.2-0.6-2.3-1.4-3.2-2.4c-0.9-1-1.7-2.1-2.2-3.4
		c-0.5-1.3-0.8-2.6-0.8-4c0-1.4,0.3-2.7,0.8-4c0.5-1.3,1.2-2.4,2.1-3.3c0.9-0.9,1.9-1.7,3.1-2.3c1.2-0.6,2.4-0.9,3.7-0.9
		c1.7,0,3.1,0.4,4.1,1.3c1,0.8,1.8,1.9,2.2,3.1h0.1V1H68L67.9,0.4L67.9,0.4z M59.9,23.2c0,1.6,0,3.1,0.1,4.4
		c0.1,1.3,0.3,2.4,0.7,3.4c0.4,0.9,0.9,1.6,1.7,2.1c0.7,0.5,1.7,0.7,3,0.7c1.3,0,2.3-0.3,3.1-0.8c0.8-0.6,1.4-1.3,1.8-2.2
		c0.4-0.9,0.7-1.9,0.9-2.9c0.2-1.1,0.2-2.1,0.2-3.1c0-1.2,0-2.2-0.1-3.1c0-0.9-0.1-1.7-0.3-2.3c-0.1-0.7-0.3-1.3-0.5-1.8
		c-0.2-0.5-0.5-1-0.8-1.4c-0.5-0.6-1.1-1.1-1.8-1.5c-0.7-0.4-1.7-0.6-2.8-0.6c-1.1,0-2,0.2-2.7,0.6c-0.7,0.4-1.2,1-1.6,1.9
		c-0.4,0.8-0.7,1.8-0.8,2.9C60,20.5,59.9,21.7,59.9,23.2L59.9,23.2z">
  </path>
  <path class="st0" d="M80.4,33.1H84V14.6h-3.6v-0.6h7.5v4.7H88c0.1-0.5,0.3-1,0.6-1.6c0.3-0.6,0.7-1.1,1.2-1.7
		c0.5-0.5,1.1-1,1.8-1.4c0.7-0.4,1.5-0.6,2.5-0.6c0.7,0,1.3,0.1,1.9,0.3c0.5,0.2,1,0.5,1.3,0.9c0.3,0.4,0.6,0.8,0.7,1.2
		c0.2,0.5,0.2,0.9,0.2,1.4c0,1-0.2,1.7-0.7,2c-0.5,0.3-1,0.5-1.6,0.5c-1.4,0-2-0.4-2-1.3c0-0.3,0-0.5,0.1-0.7
		c0.1-0.2,0.1-0.3,0.2-0.5c0.1-0.2,0.1-0.4,0.2-0.6c0.1-0.2,0.1-0.5,0.1-0.9c0-1-0.5-1.5-1.6-1.5c-0.5,0-1,0.2-1.6,0.6
		c-0.6,0.4-1.1,0.9-1.5,1.6c-0.5,0.7-0.9,1.6-1.2,2.6c-0.3,1-0.5,2.2-0.5,3.4v10.6h4v0.6H80.4L80.4,33.1L80.4,33.1z">
  </path>
  <path class="st0" d="M119,33.3c-0.4,0.3-0.9,0.6-1.4,0.8c-0.6,0.2-1.2,0.3-2,0.3c-1.5,0-2.6-0.3-3.2-0.9c-0.7-0.6-1.1-1.5-1.4-2.7
		h-0.1c-0.1,0.3-0.3,0.6-0.5,1c-0.2,0.4-0.5,0.8-1,1.2c-0.4,0.4-1,0.7-1.8,1c-0.7,0.3-1.7,0.4-2.8,0.4c-1.3,0-2.3-0.1-3.1-0.4
		c-0.8-0.3-1.4-0.7-1.8-1.1c-0.4-0.4-0.7-0.9-0.9-1.5s-0.2-1-0.2-1.5c0-1.1,0.2-1.9,0.6-2.6c0.4-0.6,1-1.2,1.7-1.5
		c0.7-0.4,1.5-0.7,2.3-0.9c0.8-0.2,1.7-0.5,2.6-0.8c1-0.3,1.9-0.6,2.5-0.9c0.7-0.2,1.2-0.5,1.5-0.9c0.4-0.4,0.6-0.8,0.8-1.3
		c0.1-0.5,0.2-1.3,0.2-2.2c0-0.7,0-1.4-0.1-2c-0.1-0.6-0.3-1.1-0.5-1.5c-0.2-0.4-0.6-0.7-1.1-0.9c-0.5-0.2-1.1-0.3-1.9-0.3
		c-1,0-1.9,0.2-2.5,0.5c-0.7,0.4-1,0.9-1,1.7c0,0.5,0,1,0.1,1.5c0.1,0.5,0.1,0.9,0.1,1.1c0,0.4-0.2,0.8-0.5,1.1
		c-0.3,0.3-0.8,0.4-1.3,0.4c-1,0-1.7-0.2-1.9-0.6s-0.4-0.8-0.4-1.4c0-0.7,0.2-1.3,0.5-1.9c0.3-0.6,0.8-1.2,1.4-1.6
		c0.6-0.5,1.4-0.9,2.3-1.1c0.9-0.3,2-0.4,3.1-0.4c1.4,0,2.6,0.2,3.6,0.5c1,0.4,1.7,0.8,2.3,1.4c0.6,0.6,1,1.3,1.2,2
		c0.2,0.8,0.4,1.5,0.4,2.4v11.5c0,0.9,0.1,1.5,0.4,1.8c0.3,0.3,0.7,0.5,1.2,0.5c0.3,0,0.7-0.1,1.1-0.2c0.4-0.1,0.7-0.3,1.1-0.6
		L119,33.3L119,33.3z M110.9,22.4L110.9,22.4c-0.2,0.4-0.7,0.8-1.6,1.2l-3.5,1.4c-1,0.4-1.7,1-2.3,1.7c-0.5,0.7-0.8,1.6-0.8,2.7
		c0,0.5,0,0.9,0.1,1.4c0.1,0.5,0.3,0.9,0.5,1.3c0.2,0.4,0.6,0.7,1,0.9c0.4,0.2,1,0.4,1.7,0.4c1,0,1.8-0.2,2.5-0.6
		c0.6-0.4,1.1-1,1.4-1.6c0.3-0.6,0.5-1.3,0.6-2.1c0.1-0.8,0.2-1.4,0.2-2.1L110.9,22.4L110.9,22.4z">
  </path>
  <path class="st0" d="M0,33.1h5.1V1.5H0V0.8h14.9v0.6H9.8v15.1h15.4V1.5H20V0.8h14.9v0.6h-5.1v31.6h5.1v0.6H20v-0.6h5.1V17.2H9.8
		v15.9h5.1v0.6H0V33.1z">
  </path>
  <path class="st0" d="M154.1,33.3c-0.4,0.3-0.9,0.6-1.4,0.8c-0.6,0.2-1.2,0.3-2,0.3c-1.5,0-2.6-0.3-3.2-0.9
		c-0.7-0.6-1.1-1.5-1.4-2.7h-0.1c-0.1,0.3-0.3,0.6-0.5,1c-0.2,0.4-0.5,0.8-1,1.2c-0.4,0.4-1,0.7-1.8,1c-0.7,0.3-1.7,0.4-2.8,0.4
		c-1.3,0-2.3-0.1-3.1-0.4c-0.8-0.3-1.4-0.7-1.8-1.1c-0.4-0.4-0.7-0.9-0.9-1.5s-0.2-1-0.2-1.5c0-1.1,0.2-1.9,0.6-2.6
		c0.4-0.6,1-1.2,1.7-1.5c0.7-0.4,1.5-0.7,2.3-0.9c0.8-0.2,1.7-0.5,2.6-0.8c1-0.3,1.9-0.6,2.5-0.9c0.7-0.2,1.2-0.5,1.6-0.9
		c0.4-0.4,0.6-0.8,0.8-1.3c0.1-0.5,0.2-1.3,0.2-2.2c0-0.7,0-1.4-0.1-2c-0.1-0.6-0.3-1.1-0.5-1.5c-0.2-0.4-0.6-0.7-1.1-0.9
		c-0.5-0.2-1.1-0.3-1.9-0.3c-1,0-1.9,0.2-2.5,0.5c-0.7,0.4-1,0.9-1,1.7c0,0.5,0,1,0.1,1.5c0.1,0.5,0.1,0.9,0.1,1.1
		c0,0.4-0.2,0.8-0.5,1.1c-0.3,0.3-0.8,0.4-1.3,0.4c-1,0-1.6-0.2-1.9-0.6c-0.2-0.4-0.4-0.8-0.4-1.4c0-0.7,0.2-1.3,0.5-1.9
		c0.3-0.6,0.8-1.2,1.4-1.6c0.6-0.5,1.4-0.9,2.3-1.1c0.9-0.3,2-0.4,3.1-0.4c1.4,0,2.6,0.2,3.6,0.5c1,0.4,1.7,0.8,2.3,1.4
		c0.6,0.6,1,1.3,1.2,2c0.2,0.8,0.4,1.5,0.4,2.4v11.5c0,0.9,0.1,1.5,0.4,1.8c0.3,0.3,0.7,0.5,1.2,0.5c0.3,0,0.7-0.1,1.1-0.2
		c0.4-0.1,0.7-0.3,1.1-0.6L154.1,33.3L154.1,33.3z M146,22.4L146,22.4c-0.2,0.4-0.7,0.8-1.6,1.2l-3.5,1.4c-1,0.4-1.7,1-2.3,1.7
		c-0.5,0.7-0.8,1.6-0.8,2.7c0,0.5,0,0.9,0.1,1.4c0.1,0.5,0.3,0.9,0.5,1.3c0.2,0.4,0.6,0.7,1,0.9c0.4,0.2,1,0.4,1.7,0.4
		c1,0,1.8-0.2,2.5-0.6c0.6-0.4,1.1-1,1.4-1.6c0.3-0.6,0.5-1.3,0.6-2.1c0.1-0.8,0.2-1.4,0.2-2.1L146,22.4L146,22.4z">
  </path>
  <path class="st0" d="M172.8,28.7c-0.1,0.3-0.3,0.8-0.5,1.5c-0.3,0.6-0.7,1.3-1.3,1.9c-0.6,0.6-1.3,1.2-2.3,1.7
		c-1,0.5-2.2,0.7-3.8,0.7c-1.2,0-2.4-0.2-3.7-0.6c-1.3-0.4-2.4-1-3.5-1.8c-1-0.8-1.9-1.9-2.6-3.2c-0.7-1.3-1-3-1-4.9
		c0-1.5,0.3-2.9,0.9-4.2c0.6-1.3,1.3-2.4,2.3-3.4c1-1,2.1-1.7,3.4-2.2c1.3-0.5,2.7-0.8,4.2-0.8c0.8,0,1.7,0.1,2.6,0.3
		c0.9,0.2,1.7,0.5,2.4,0.9c0.7,0.4,1.3,1,1.8,1.6c0.5,0.7,0.7,1.5,0.7,2.4c0,0.6-0.2,1.2-0.6,1.6c-0.4,0.4-1,0.6-1.8,0.6
		c-0.5,0-1-0.1-1.5-0.3c-0.5-0.2-0.7-0.6-0.7-1.2c0-0.4,0.1-1,0.3-1.6c0.2-0.6,0.3-1.1,0.3-1.5c0-0.7-0.4-1.3-1.1-1.6
		c-0.7-0.4-1.5-0.6-2.5-0.6c-0.7,0-1.4,0.1-2.1,0.3c-0.7,0.2-1.4,0.6-2,1.3c-0.6,0.7-1.1,1.7-1.5,3.1c-0.4,1.4-0.6,3.2-0.6,5.6
		c0,1.3,0.1,2.6,0.3,3.7c0.2,1.2,0.5,2.2,0.9,3.1c0.4,0.9,1.1,1.6,1.9,2.1s1.8,0.8,3.1,0.8c1.4,0,2.5-0.2,3.4-0.6
		c0.9-0.4,1.6-0.9,2.1-1.5c0.5-0.6,0.9-1.1,1.1-1.7c0.2-0.6,0.4-1.1,0.6-1.4L172.8,28.7L172.8,28.7z">
  </path>
  <path class="st0" d="M174.4,33.1h3.6V14.6h-3.6v-0.6h7.5v19.2h3.6v0.6h-11.1V33.1L174.4,33.1z">
  </path>
  <path class="st0" d="M207.4,33.3c-0.4,0.3-0.9,0.6-1.4,0.8c-0.6,0.2-1.2,0.3-2,0.3c-1.5,0-2.6-0.3-3.2-0.9
		c-0.7-0.6-1.1-1.5-1.4-2.7h-0.1c-0.1,0.3-0.3,0.6-0.5,1c-0.2,0.4-0.5,0.8-1,1.2c-0.4,0.4-1,0.7-1.8,1c-0.7,0.3-1.7,0.4-2.8,0.4
		c-1.3,0-2.3-0.1-3.1-0.4c-0.8-0.3-1.4-0.7-1.8-1.1c-0.4-0.4-0.7-0.9-0.9-1.5c-0.1-0.5-0.2-1-0.2-1.5c0-1.1,0.2-1.9,0.6-2.6
		c0.4-0.6,1-1.2,1.7-1.5c0.7-0.4,1.5-0.7,2.3-0.9c0.8-0.2,1.7-0.5,2.6-0.8c1-0.3,1.9-0.6,2.5-0.9c0.7-0.2,1.2-0.5,1.6-0.9
		c0.4-0.4,0.6-0.8,0.8-1.3c0.1-0.5,0.2-1.3,0.2-2.2c0-0.7,0-1.4-0.1-2c-0.1-0.6-0.3-1.1-0.5-1.5c-0.2-0.4-0.6-0.7-1.1-0.9
		c-0.5-0.2-1.1-0.3-1.9-0.3c-1,0-1.9,0.2-2.5,0.5c-0.7,0.4-1,0.9-1,1.7c0,0.5,0,1,0.1,1.5c0.1,0.5,0.1,0.9,0.1,1.1
		c0,0.4-0.2,0.8-0.5,1.1c-0.3,0.3-0.8,0.4-1.3,0.4c-1,0-1.6-0.2-1.9-0.6c-0.2-0.4-0.4-0.8-0.4-1.4c0-0.7,0.2-1.3,0.5-1.9
		c0.3-0.6,0.8-1.2,1.4-1.6c0.6-0.5,1.4-0.9,2.3-1.1c0.9-0.3,2-0.4,3.1-0.4c1.4,0,2.6,0.2,3.6,0.5c1,0.4,1.7,0.8,2.3,1.4
		c0.6,0.6,1,1.3,1.2,2c0.2,0.8,0.4,1.5,0.4,2.4v11.5c0,0.9,0.1,1.5,0.4,1.8c0.3,0.3,0.7,0.5,1.2,0.5c0.3,0,0.7-0.1,1.1-0.2
		c0.4-0.1,0.7-0.3,1.1-0.6L207.4,33.3L207.4,33.3z M199.3,22.4L199.3,22.4c-0.2,0.4-0.7,0.8-1.6,1.2l-3.5,1.4c-1,0.4-1.7,1-2.3,1.7
		c-0.5,0.7-0.8,1.6-0.8,2.7c0,0.5,0,0.9,0.1,1.4c0.1,0.5,0.3,0.9,0.5,1.3c0.2,0.4,0.6,0.7,1,0.9c0.4,0.2,1,0.4,1.7,0.4
		c1,0,1.8-0.2,2.5-0.6c0.6-0.4,1.1-1,1.4-1.6c0.3-0.6,0.5-1.3,0.6-2.1c0.1-0.8,0.2-1.4,0.2-2.1L199.3,22.4L199.3,22.4z">
  </path>
  <path class="st0" d="M208.1,33.1h3.6V1h-3.6V0.4h7.5v32.7h3.6v0.6h-11.1V33.1z">
  </path>
  <path class="st0" d="M126.6,7.5c0-1.2,0.1-2.2,0.4-3.1c0-0.1,0.1-0.3,0.1-0.5c0.2-0.6,0.5-1.2,0.9-1.6c0,0,0.1-0.1,0.1-0.1
		c0.9-1,3-1.9,5.2-1.5c0.1-0.1,0.2-0.3,0.2-0.4c-0.5-0.1-1.3-0.3-2.2-0.3c-1.4,0.1-2.5,0.4-3.7,1.1c-1.2,0.8-2.2,1.6-3,2.7
		c-0.3,0.4-0.6,0.8-0.8,1.2c-0.2,0.4-0.5,1-0.6,1.6c-0.2,0.6-0.3,1.3-0.4,2.1c-0.1,0.8-0.2,1.7-0.2,2.8v2.5H119v0.6h3.6v18.6h-2.3
		v0.6h10.5v-0.6h-4.2V14.6h5.7v-0.6h-5.7V7.5z">
  </path>
  <path class="st0" d="M138.4,4.7c0,1.3-1.1,2.4-2.4,2.4c-1.3,0-2.4-1.1-2.4-2.4c0-1.7,2-1.8,1.2-4C137,1.4,138.4,3.2,138.4,4.7
		L138.4,4.7z">
  </path>
  <path class="st0" d="M177.3,6.2c0-0.7,0.2-1.3,0.7-1.7c0.5-0.5,1.1-0.7,1.7-0.7s1.3,0.2,1.7,0.7c0.5,0.5,0.7,1.1,0.7,1.7
		s-0.2,1.3-0.7,1.7c-0.5,0.5-1.1,0.7-1.7,0.7c-0.7,0-1.3-0.2-1.7-0.7C177.6,7.4,177.3,6.8,177.3,6.2z">
  </path>
 </g>
</svg>