<svg width="195" height="55" viewBox="0 0 195 55" fill="none" xmlns="http://www.w3.org/2000/svg">
<g id="logo escritorio" clip-path="url(#clip0_2840_17734)">
<path id="Vector" d="M67.3362 23.4572H84.9515V28.9955H61.814V16.1682C65.9401 12.9677 69.1943 12.003 76.1127 12.003H80.2259V17.48H76.1127C74.81 17.48 73.7365 17.5106 72.8922 17.5719C72.1567 17.6058 71.4237 17.6808 70.6968 17.7965C70.1229 17.8952 69.5622 18.0579 69.0256 18.2814C68.5066 18.4907 67.9513 18.7637 67.3362 19.0802V23.4572ZM61.814 6.88834V1.396H83.9238V6.88834H61.814Z" fill="white"/>
<path id="Vector_2" d="M190.581 20.831L194.992 29.0542H188.878L186.667 24.889C183.034 24.2867 173.98 24.9503 168.087 29.0542H162.243L173.856 7.61572L176.757 13.0341L171.878 22.2679C177.169 19.5677 184.765 19.2359 190.581 20.8208V20.831ZM182.357 16.7858L174.024 1.19948L173.827 0.81665H179.84L188.632 17.1737C186.561 16.8215 184.457 16.6897 182.357 16.7807V16.7858Z" fill="white"/>
<path id="Vector_3" d="M159.157 25.4097C157.602 26.7307 155.799 27.7399 153.85 28.3805C149.825 29.6914 145.477 29.6914 141.451 28.3805C139.526 27.7469 137.739 26.7654 136.181 25.4863C134.636 24.2139 133.381 22.6355 132.498 20.854C131.548 18.9031 131.073 16.7614 131.11 14.5986C131.11 12.2607 131.572 10.1781 132.522 8.36607C133.423 6.60054 134.693 5.04269 136.251 3.79507C137.824 2.5339 139.626 1.57622 141.56 0.972332C143.535 0.32966 145.602 0.00391282 147.682 0.0075993C149.719 0.00910138 151.745 0.304033 153.695 0.883005C155.585 1.43669 157.362 2.31264 158.944 3.47094L155.215 7.72547C154.13 6.99966 152.933 6.4491 151.671 6.09461C150.373 5.73131 149.031 5.54412 147.682 5.53823C146.342 5.53891 145.009 5.72623 143.722 6.09461C142.494 6.45489 141.341 7.02792 140.317 7.78672C139.301 8.53518 138.475 9.50594 137.906 10.6222C137.287 11.8953 136.982 13.2947 137.019 14.7057C136.982 16.112 137.298 17.5055 137.938 18.7638C138.531 19.8644 139.357 20.827 140.361 21.5865C141.404 22.3387 142.573 22.9054 143.815 23.2607C145.089 23.6363 146.412 23.8246 147.742 23.8197C149.247 23.8225 150.74 23.5633 152.153 23.054C153.545 22.5612 154.828 21.808 155.929 20.8361L159.157 25.4097Z" fill="white"/>
<path id="Vector_4" d="M125.821 1.45471H120.296V29.0542H125.821V1.45471Z" fill="white"/>
<path id="Vector_5" d="M21.0204 8.24611C19.9295 7.35172 18.6437 6.71678 17.2627 6.39066C15.7734 6.01991 14.2421 5.83723 12.7058 5.84704C12.0232 5.85185 11.3434 5.93233 10.6791 6.08695C10.054 6.24004 9.44557 6.45289 8.86256 6.72245C8.36694 6.96341 7.9195 7.2902 7.54168 7.68718C7.23379 7.99385 7.05334 8.40249 7.03565 8.83312C7.03106 9.22341 7.09335 9.61167 7.2199 9.98161C7.37776 10.3506 7.66636 10.6508 8.03215 10.8264C8.60919 11.1152 9.23243 11.3043 9.87463 11.3853C10.9548 11.5553 12.0481 11.6305 13.1418 11.6099C16.0872 11.6099 18.4824 11.8371 20.2912 12.2888C22.0999 12.7405 23.5142 13.376 24.4822 14.1621C25.3854 14.8622 26.0617 15.8058 26.4285 16.8777C26.7511 17.9138 26.9121 18.992 26.906 20.0756C26.9435 21.5897 26.5728 23.0867 25.8316 24.4143C25.0931 25.6493 24.0611 26.6897 22.8239 27.4463C21.4271 28.2914 19.898 28.9037 18.2982 29.2584C16.4672 29.6742 14.5927 29.8764 12.7136 29.8607C10.2701 29.8743 7.85572 29.3383 5.65508 28.2937C3.47479 27.2836 1.54298 25.8208 -0.00732422 24.006L3.99684 20.0092C4.42762 20.4456 4.88694 20.9127 5.37741 21.4563C5.89953 22.0105 6.48169 22.5069 7.1135 22.9366C7.8404 23.4285 8.63579 23.8145 9.475 24.0825C10.5237 24.4127 11.6204 24.5714 12.7214 24.5521C15.3165 24.5521 17.4159 24.1897 19.0118 23.4368C20.6078 22.6839 21.3889 21.5814 21.3889 20.0858C21.3889 18.8352 20.683 18.0185 19.2557 17.628C17.8285 17.2375 15.6512 17.0538 12.7214 17.0538C11.1601 17.0639 9.60188 16.9168 8.07107 16.6148C6.774 16.3806 5.53457 15.9041 4.41983 15.2111C3.40819 14.5771 2.57899 13.6983 2.01163 12.6589C1.39618 11.485 1.0952 10.1762 1.13709 8.85609C1.12839 7.65518 1.45707 6.47522 2.08688 5.44634C2.73461 4.39785 3.59395 3.49102 4.61187 2.78184C5.73416 2.02287 6.97931 1.45674 8.29425 1.1076C9.73775 0.710687 11.2304 0.513126 12.7292 0.52059C14.7541 0.520179 16.7721 0.753168 18.7419 1.21479C20.8983 1.77524 22.9337 2.71516 24.7495 3.98904L21.0204 8.24611Z" fill="white"/>
<path id="Vector_6" d="M30.4634 1.42664V6.91898H40.6516V29.0262H46.2361V15.5939V6.91898H56.7928V1.42664H30.4634Z" fill="white"/>
<path id="Vector_7" d="M88.9453 1.42664V6.91898H99.1335V29.0262H104.718V15.5939V6.91898H115.275V1.42664H88.9453Z" fill="white"/>
<path id="Vector_8" d="M17.112 45.904C17.112 48.4791 15.3577 49.9313 12.1814 49.9313H4.65574V54.6248H2.09961V41.8638H12.5914C15.3577 41.8536 17.112 43.4538 17.112 45.904ZM14.5169 45.9448C14.5169 44.6687 13.7384 44.1174 12.0672 44.1174H4.63238V47.6701H12.2125C13.7332 47.6701 14.5143 47.0678 14.5143 45.9448H14.5169Z" fill="white"/>
<path id="Vector_9" d="M33.1779 54.6248L29.7836 49.9313H23.3375V54.6248H20.8047V41.8638H31.2991C34.0628 41.8638 35.8171 43.464 35.8171 45.9141C35.8171 47.9686 34.696 49.3417 32.5862 49.796L36.0921 54.6452L33.1779 54.6248ZM33.2194 45.9473C33.2194 44.6712 32.4409 44.1199 30.7697 44.1199H23.3375V47.6726H30.9176C32.4383 47.67 33.2194 47.0677 33.2194 45.9447V45.9473Z" fill="white"/>
<path id="Vector_10" d="M54.12 53.3181C52.6642 54.3772 50.6167 55 48.3149 55C46.013 55 43.9448 54.3543 42.4864 53.3181C40.6733 52.0096 39.7659 50.3082 39.7642 48.2137C39.7642 46.1591 40.6724 44.4568 42.5097 43.1475C43.9863 42.0884 46.0779 41.4248 48.3149 41.4248C50.5518 41.4248 52.6226 42.0884 54.0992 43.1475C55.9158 44.4568 56.8448 46.1591 56.8448 48.2137C56.8448 50.3048 55.9365 52.0062 54.12 53.3181ZM48.3149 43.6937C44.7882 43.6937 42.3826 45.6462 42.3826 48.2213C42.3826 50.9011 44.7051 52.7694 48.3149 52.7694C51.9246 52.7694 54.2056 50.9011 54.2056 48.2213C54.2056 45.613 51.8182 43.6937 48.3149 43.6937Z" fill="white"/>
<path id="Vector_11" d="M64.085 44.1174V46.8584H71.7067V49.1222H64.085V54.6248H61.5522V41.8638H75.0465V44.1276L64.085 44.1174Z" fill="white"/>
<path id="Vector_12" d="M78.6299 54.6248V41.8638H92.1242V44.1276H81.1652V46.8584H88.7869V49.1222H81.1652V52.3712H92.6068V54.635L78.6299 54.6248Z" fill="white"/>
<path id="Vector_13" d="M102.658 43.6937C99.7848 43.6937 98.329 44.2041 98.329 45.2072C98.329 46.6007 100.631 46.3914 104.388 46.7666C108.463 47.1596 110.427 48.0733 110.427 50.5949C110.427 53.3155 107.892 54.8928 103.143 54.8928C99.8081 54.8928 97.1742 54.1654 95.1396 52.6494L96.5124 50.8858C98.2667 52.0904 100.504 52.7336 103.101 52.7336C106.099 52.7336 107.702 51.922 107.702 50.7199C107.702 50.0538 107.217 49.5561 106.226 49.2856C104.811 48.8925 102.805 49.0176 100.356 48.7879C97.1664 48.4969 95.669 47.5118 95.669 45.47C95.669 43.0633 98.1603 41.5039 102.613 41.5039C105.528 41.5039 107.915 42.1266 109.729 43.3747L108.172 44.9928C106.472 44.1152 104.577 43.6687 102.658 43.6937Z" fill="white"/>
<path id="Vector_14" d="M114.642 54.6248V41.8638H117.174V54.6248H114.642Z" fill="white"/>
<path id="Vector_15" d="M136.248 53.3181C134.79 54.3772 132.742 55 130.44 55C128.139 55 126.07 54.3543 124.614 53.3181C122.798 52.0096 121.89 50.3082 121.89 48.2137C121.89 46.1591 122.798 44.4568 124.635 43.1475C126.112 42.0884 128.203 41.4248 130.44 41.4248C132.677 41.4248 134.748 42.0884 136.225 43.1475C138.041 44.4568 138.97 46.1591 138.97 48.2137C138.97 50.3048 138.063 52.0062 136.248 53.3181ZM130.44 43.6937C126.914 43.6937 124.503 45.6334 124.503 48.2086C124.503 50.8884 126.838 52.7566 130.435 52.7566C134.032 52.7566 136.326 50.8884 136.326 48.2086C136.331 45.613 133.946 43.6937 130.44 43.6937Z" fill="white"/>
<path id="Vector_16" d="M155.036 54.6249L146.213 43.972V54.6249H143.68V41.8638H147.459L156.282 52.5168V41.8536H158.815V54.6147L155.036 54.6249Z" fill="white"/>
<path id="Vector_17" d="M176.697 54.6248L175.2 51.8837H166.478L164.986 54.6248H162.193L169.265 41.8638H172.413L179.484 54.6248H176.697ZM170.85 43.9719L167.736 49.6199H173.923L170.85 43.9719Z" fill="white"/>
<path id="Vector_18" d="M182.86 54.6248V41.8638H185.396V52.3712H194.883V54.635L182.86 54.6248Z" fill="white"/>
</g>
<defs>
<clipPath id="clip0_2840_17734">
<rect width="195" height="55" fill="white"/>
</clipPath>
</defs>
</svg>
